# xmcd CD database file
#
# Track frame offsets:
#	150
#	12371
#	32471
#	50951
#	76488
#	89312
#	111729
#	128639
#	143494
#	167470
#
# Disc length: 2509 seconds
#
# Revision: 0
# Processed by: cddbd v1.5.1PL0 Copyright (c) Steve Scherf et al.
# Submitted via: CDex 1.51
#
DISCID=7d09cb0a
DTITLE=S.O.J. - The Elegy Of The Battl
DYEAR=2003
DGENRE=Game
TTITLE0=FULLMETAL FIGHTER -武者ALESTE-
TTITLE1=FLASH OF SWORD -夢幻戦士ヴァリス-
TTITLE2=デカキャラ -Ys3 未使用曲-
TTITLE3=マニアックプロレスメドレー -マニアックプロレス-
TTITLE4=神をも超えた力 -風の伝説ザナドゥ-
TTITLE5=STAGE6 ニューロ・コード -RAYXANBER2-
TTITLE6=STAGE1 -OVERRIDE-
TTITLE7=The Fantasm Soldier Valis -夢幻戦士ヴァリス-
TTITLE8=真・ダルク=ファクト -Ys(FC版)
TTITLE9=AWE OF SHE -ギルティギアXX-
EXTD=YEAR: 2003
EXTT0=
EXTT1=
EXTT2=
EXTT3=
EXTT4=
EXTT5=
EXTT6=
EXTT7=
EXTT8=
EXTT9=
PLAYORDER=
